{"glyphs":{"0":{"ha":1065,"x_min":83,"x_max":982,"o":"m 532 0 q 306 62 408 0 q 143 234 203 124 q 83 486 83 344 q 143 738 83 628 q 306 910 203 849 q 532 972 408 972 q 760 910 657 972 q 922 738 863 849 q 982 486 982 628 q 922 234 982 344 q 760 62 863 124 q 532 0 657 0 m 532 89 q 716 139 633 89 q 846 280 799 189 q 893 486 893 371 q 846 692 893 601 q 716 833 799 782 q 532 883 633 883 q 349 833 431 883 q 219 692 267 782 q 172 486 172 601 q 219 280 172 371 q 349 139 267 189 q 532 89 431 89 z "},"1":{"ha":617,"x_min":56,"x_max":460,"o":"m 460 972 l 460 0 l 371 0 l 371 842 l 117 593 l 56 656 l 378 972 l 460 972 z "},"2":{"ha":739,"x_min":49,"x_max":656,"o":"m 49 764 q 170 915 92 857 q 354 972 249 972 q 509 933 440 972 q 617 827 578 894 q 656 678 656 760 q 626 542 656 604 q 551 433 596 479 l 211 89 l 656 89 l 656 0 l 78 0 l 78 78 l 489 497 q 567 674 567 575 q 539 781 567 733 q 463 856 511 829 q 357 883 415 883 q 217 835 279 883 q 121 701 154 786 l 49 764 z "},"3":{"ha":718,"x_min":69,"x_max":635,"o":"m 71 764 q 178 914 103 856 q 360 972 254 972 q 499 939 436 972 q 599 845 563 906 q 635 708 635 785 q 597 572 635 631 q 492 488 558 514 q 597 401 560 460 q 635 263 635 342 q 599 124 635 183 q 501 33 563 65 q 363 0 439 0 q 178 59 254 0 q 69 215 101 118 l 146 274 q 226 138 171 188 q 363 89 282 89 q 494 138 443 89 q 546 264 546 186 q 495 392 546 343 q 365 443 444 440 l 322 443 l 322 532 l 365 532 q 495 583 444 535 q 546 708 546 632 q 493 834 546 785 q 363 883 440 883 q 228 834 285 883 q 146 703 172 785 l 71 764 z "},"4":{"ha":926,"x_min":42,"x_max":888,"o":"m 690 972 l 690 304 l 888 304 l 888 215 l 690 215 l 690 0 l 601 0 l 601 215 l 42 215 l 42 297 l 614 972 l 690 972 m 601 817 l 167 304 l 601 304 l 601 817 z "},"5":{"ha":744,"x_min":83,"x_max":678,"o":"m 347 0 q 208 23 278 0 q 83 89 138 46 l 129 169 q 349 89 229 89 q 521 151 453 89 q 589 325 589 213 q 524 497 589 436 q 353 558 458 558 q 138 506 253 558 l 138 972 l 678 972 l 678 883 l 226 883 l 226 626 q 357 647 286 647 q 524 607 451 647 q 638 493 597 567 q 678 322 678 419 q 633 145 678 218 q 512 36 588 72 q 347 0 436 0 z "},"6":{"ha":806,"x_min":97,"x_max":736,"o":"m 418 0 q 263 38 333 0 q 153 147 193 76 q 111 265 125 197 q 97 428 97 332 q 138 706 97 583 q 260 901 178 829 q 465 972 343 972 q 678 906 588 972 l 631 832 q 463 883 549 883 q 271 788 340 883 q 197 528 201 693 l 197 519 q 290 601 232 569 q 422 632 349 632 q 585 592 514 632 q 697 483 657 553 q 736 321 736 413 q 695 156 736 229 q 582 42 654 83 q 418 0 510 0 m 419 89 q 583 153 519 89 q 647 321 647 218 q 585 482 647 421 q 424 543 524 543 q 258 480 322 543 q 194 315 194 417 q 258 152 194 215 q 419 89 321 89 z "},"7":{"ha":747,"x_min":56,"x_max":692,"o":"m 144 0 l 589 883 l 56 883 l 56 972 l 692 972 l 692 888 l 244 0 l 144 0 z "},"8":{"ha":738,"x_min":83,"x_max":654,"o":"m 369 0 q 222 33 286 0 q 120 125 157 65 q 83 264 83 185 q 118 396 83 339 q 225 486 153 453 q 119 575 154 518 q 83 710 83 632 q 120 848 83 789 q 222 940 157 907 q 369 972 286 972 q 516 940 451 972 q 617 848 581 907 q 654 711 654 789 q 508 486 654 556 q 654 261 654 417 q 617 124 654 183 q 516 33 581 65 q 369 0 451 0 m 369 531 q 508 578 450 531 q 565 708 565 626 q 510 835 565 786 q 369 883 456 883 q 227 835 282 883 q 172 708 172 786 q 231 578 172 626 q 369 531 289 531 m 369 89 q 511 138 457 89 q 565 264 565 186 q 508 394 565 346 q 369 442 450 442 q 231 394 289 442 q 172 264 172 346 q 227 138 172 186 q 369 89 282 89 z "},"9":{"ha":783,"x_min":69,"x_max":707,"o":"m 339 0 q 121 56 226 0 l 158 136 q 342 89 253 89 q 536 183 465 89 q 607 446 607 278 l 607 454 q 516 370 575 400 q 382 340 457 340 q 219 380 290 340 q 109 490 149 419 q 69 651 69 561 q 110 816 69 743 q 224 931 151 889 q 386 972 296 972 q 542 934 472 972 q 651 825 611 896 q 694 706 681 774 q 707 538 707 639 q 613 137 707 274 q 339 0 519 0 m 381 429 q 547 492 483 429 q 611 657 611 556 q 548 820 611 757 q 385 883 485 883 q 222 819 285 883 q 158 651 158 754 q 220 490 158 551 q 381 429 282 429 z "}," ":{"ha":424,"x_min":0,"x_max":0,"o":""},"A":{"ha":1026,"x_min":14,"x_max":1013,"o":"m 914 0 l 818 206 l 207 206 l 113 0 l 14 0 l 467 972 l 560 972 l 1013 0 l 914 0 m 249 294 l 778 294 l 513 865 l 249 294 z "},"B":{"ha":842,"x_min":115,"x_max":778,"o":"m 115 972 l 506 972 q 645 940 583 972 q 742 849 707 908 q 778 710 778 789 q 738 574 778 633 q 631 486 699 514 q 738 399 699 458 q 778 263 778 339 q 742 124 778 183 q 645 32 707 64 q 506 0 583 0 l 115 0 l 115 972 m 517 531 q 640 581 590 531 q 689 710 689 632 q 640 836 689 789 q 506 883 590 883 l 204 883 l 204 531 l 517 531 m 506 89 q 640 136 590 89 q 689 263 689 183 q 640 391 689 340 q 517 442 590 442 l 204 442 l 204 89 l 506 89 z "},"C":{"ha":935,"x_min":69,"x_max":899,"o":"m 69 488 q 133 735 69 624 q 308 909 197 846 q 556 972 419 972 q 886 846 739 972 l 847 761 q 713 851 783 818 q 553 883 643 883 q 350 833 440 883 q 209 692 260 782 q 158 486 158 601 q 210 281 158 371 q 350 140 261 190 q 550 89 439 89 q 858 214 724 89 l 899 129 q 550 0 751 0 q 307 64 417 0 q 133 239 197 128 q 69 488 69 350 z "},"D":{"ha":986,"x_min":115,"x_max":926,"o":"m 115 972 l 442 972 q 688 909 578 972 q 863 735 799 846 q 926 486 926 624 q 863 238 926 349 q 688 63 799 126 q 442 0 578 0 l 115 0 l 115 972 m 442 89 q 644 140 554 89 q 786 282 735 192 q 838 486 838 372 q 786 690 838 600 q 644 832 735 781 q 442 883 554 883 l 204 883 l 204 89 l 442 89 z "},"E":{"ha":767,"x_min":115,"x_max":696,"o":"m 115 0 l 115 972 l 696 972 l 696 883 l 204 883 l 204 531 l 696 531 l 696 442 l 204 442 l 204 89 l 696 89 l 696 0 l 115 0 z "},"F":{"ha":747,"x_min":115,"x_max":696,"o":"m 115 0 l 115 972 l 696 972 l 696 883 l 204 883 l 204 531 l 696 531 l 696 442 l 204 442 l 204 0 l 115 0 z "},"G":{"ha":1058,"x_min":60,"x_max":1015,"o":"m 60 486 q 123 735 60 624 q 298 909 186 846 q 549 972 410 972 q 726 940 646 972 q 878 846 806 907 l 838 761 q 705 851 775 818 q 544 883 635 883 q 340 833 431 883 q 199 692 250 782 q 149 486 149 601 q 199 281 149 371 q 341 140 250 190 q 547 89 432 89 q 733 132 653 89 q 859 250 813 175 q 914 419 906 325 l 515 419 l 515 508 l 1015 508 l 1015 504 q 960 243 1015 357 q 799 65 904 129 q 551 0 693 0 q 299 63 411 0 q 123 238 186 126 q 60 486 60 349 z "},"H":{"ha":1031,"x_min":115,"x_max":915,"o":"m 115 0 l 115 972 l 204 972 l 204 531 l 826 531 l 826 972 l 915 972 l 915 0 l 826 0 l 826 442 l 204 442 l 204 0 l 115 0 z "},"I":{"ha":319,"x_min":115,"x_max":204,"o":"m 115 0 l 115 972 l 204 972 l 204 0 l 115 0 z "},"J":{"ha":667,"x_min":24,"x_max":569,"o":"m 296 0 q 144 38 206 0 q 54 133 83 75 q 24 256 25 192 l 104 297 q 158 147 108 204 q 296 89 207 89 q 435 148 390 89 q 481 303 481 207 l 481 972 l 569 972 l 569 303 q 497 80 569 160 q 296 0 424 0 z "},"K":{"ha":876,"x_min":115,"x_max":865,"o":"m 115 0 l 115 972 l 204 972 l 204 436 l 732 972 l 858 972 l 443 551 l 865 0 l 753 0 l 379 488 l 204 310 l 204 0 l 115 0 z "},"L":{"ha":728,"x_min":115,"x_max":707,"o":"m 115 0 l 115 972 l 204 972 l 204 89 l 707 89 l 707 0 l 115 0 z "},"M":{"ha":1408,"x_min":115,"x_max":1293,"o":"m 115 0 l 115 972 l 206 972 l 704 114 l 1203 972 l 1293 972 l 1293 0 l 1204 0 l 1204 792 l 743 0 l 664 0 l 204 792 l 204 0 l 115 0 z "},"N":{"ha":1099,"x_min":115,"x_max":983,"o":"m 115 0 l 115 972 l 204 972 l 894 142 l 894 972 l 983 972 l 983 0 l 894 0 l 204 829 l 204 0 l 115 0 z "},"O":{"ha":1092,"x_min":60,"x_max":1032,"o":"m 546 0 q 297 63 408 0 q 123 238 186 126 q 60 486 60 349 q 123 735 60 624 q 297 909 186 846 q 546 972 408 972 q 794 909 683 972 q 969 735 906 846 q 1032 486 1032 624 q 969 238 1032 349 q 794 63 906 126 q 546 0 683 0 m 546 89 q 749 140 658 89 q 892 283 840 192 q 943 486 943 374 q 892 690 943 599 q 749 832 840 781 q 546 883 658 883 q 342 832 433 883 q 200 690 251 781 q 149 486 149 599 q 200 283 149 374 q 342 140 251 192 q 546 89 433 89 z "},"P":{"ha":817,"x_min":115,"x_max":775,"o":"m 115 972 l 446 972 q 618 931 543 972 q 734 817 693 890 q 775 650 775 743 q 734 484 775 557 q 618 370 693 411 q 446 329 543 329 l 204 329 l 204 0 l 115 0 l 115 972 m 446 418 q 619 483 553 418 q 686 650 686 549 q 619 818 686 753 q 446 883 553 883 l 204 883 l 204 418 l 446 418 z "},"Q":{"ha":1149,"x_min":60,"x_max":1176,"o":"m 857 107 q 714 28 793 56 q 546 0 635 0 q 297 63 408 0 q 123 238 186 126 q 60 486 60 349 q 123 735 60 624 q 297 909 186 846 q 546 972 408 972 q 794 909 683 972 q 969 735 906 846 q 1032 486 1032 624 q 1003 313 1032 394 q 919 168 974 232 l 1176 -89 l 1114 -151 l 857 107 m 546 89 q 793 171 689 89 l 507 456 l 569 518 l 856 232 q 920 348 897 283 q 943 486 943 413 q 892 690 943 599 q 749 832 840 781 q 546 883 658 883 q 342 832 433 883 q 200 690 251 781 q 149 486 149 599 q 200 283 149 374 q 342 140 251 192 q 546 89 433 89 z "},"R":{"ha":832,"x_min":115,"x_max":788,"o":"m 674 0 l 414 393 l 204 393 l 204 0 l 115 0 l 115 972 l 461 972 q 623 935 553 972 q 731 832 693 899 q 769 681 769 765 q 703 490 769 564 q 519 397 638 415 l 788 0 l 674 0 m 204 482 l 461 482 q 620 535 560 482 q 681 681 681 589 q 622 827 681 771 q 461 883 563 883 l 204 883 l 204 482 z "},"S":{"ha":701,"x_min":56,"x_max":646,"o":"m 356 0 q 163 58 242 0 q 56 218 83 117 l 136 256 q 214 131 158 174 q 354 89 269 89 q 496 133 443 89 q 549 254 549 178 q 499 367 549 326 q 339 443 449 407 q 194 504 253 472 q 101 588 136 536 q 65 717 65 640 q 143 902 65 832 q 347 972 221 972 q 539 914 460 972 q 646 754 618 856 l 565 717 q 488 841 543 799 q 347 883 432 883 q 206 839 258 883 q 154 718 154 794 q 204 606 154 646 q 363 529 254 565 q 508 468 450 500 q 601 384 565 436 q 638 256 638 332 q 560 70 638 140 q 356 0 482 0 z "},"T":{"ha":899,"x_min":7,"x_max":892,"o":"m 404 0 l 404 883 l 7 883 l 7 972 l 892 972 l 892 883 l 493 883 l 493 0 l 404 0 z "},"U":{"ha":1081,"x_min":97,"x_max":983,"o":"m 540 0 q 315 58 417 0 q 156 216 214 115 q 97 440 97 317 l 97 972 l 186 972 l 186 440 q 233 262 186 342 q 360 135 279 182 q 540 89 442 89 q 721 135 640 89 q 848 262 801 182 q 894 440 894 342 l 894 972 l 983 972 l 983 440 q 925 216 983 317 q 765 58 867 115 q 540 0 664 0 z "},"V":{"ha":1017,"x_min":11,"x_max":1006,"o":"m 475 0 l 11 972 l 110 972 l 510 133 l 907 972 l 1006 972 l 543 0 l 475 0 z "},"W":{"ha":1696,"x_min":14,"x_max":1682,"o":"m 407 0 l 14 972 l 110 972 l 442 151 l 806 972 l 890 972 l 1254 151 l 1586 972 l 1682 972 l 1290 0 l 1224 0 l 849 847 l 472 0 l 407 0 z "},"X":{"ha":951,"x_min":25,"x_max":926,"o":"m 25 0 l 418 486 l 25 972 l 139 972 l 475 557 l 813 972 l 926 972 l 533 486 l 926 0 l 811 0 l 475 415 l 140 0 l 25 0 z "},"Y":{"ha":888,"x_min":11,"x_max":876,"o":"m 400 0 l 400 415 l 11 972 l 121 972 l 444 506 l 768 972 l 876 972 l 489 415 l 489 0 l 400 0 z "},"Z":{"ha":856,"x_min":42,"x_max":814,"o":"m 42 0 l 42 68 l 682 883 l 42 883 l 42 972 l 814 972 l 814 904 l 174 89 l 814 89 l 814 0 l 42 0 z "},"a":{"ha":707,"x_min":63,"x_max":635,"o":"m 86 544 q 178 669 108 626 q 363 711 247 711 q 635 457 635 711 l 635 0 l 550 0 l 550 133 q 450 25 517 64 q 294 -14 383 -14 q 126 43 189 -14 q 63 196 63 100 q 122 340 63 285 q 285 406 181 396 l 514 428 q 542 436 533 429 q 550 458 550 443 l 550 482 q 503 597 550 558 q 367 635 457 635 q 228 601 281 635 q 163 504 176 568 l 86 544 m 296 328 q 189 285 226 321 q 151 194 151 250 q 193 101 151 135 q 308 67 235 67 q 431 97 376 67 q 518 179 486 126 q 550 297 550 232 l 550 356 l 296 328 z "},"b":{"ha":849,"x_min":106,"x_max":801,"o":"m 190 557 q 301 671 231 631 q 464 711 372 711 q 639 665 563 711 q 758 535 715 618 q 801 347 801 453 q 758 159 801 242 q 639 30 715 76 q 464 -17 563 -17 q 299 24 371 -17 q 190 136 226 64 l 190 0 l 106 0 l 106 972 l 190 972 l 190 557 m 713 347 q 680 495 713 431 q 588 596 647 560 q 450 632 528 632 q 258 554 331 632 q 185 347 185 476 q 258 140 185 218 q 450 63 331 63 q 588 99 528 63 q 680 199 647 135 q 713 347 713 264 z "},"c":{"ha":690,"x_min":49,"x_max":658,"o":"m 49 346 q 95 536 49 453 q 224 665 142 619 q 413 711 307 711 q 656 619 558 711 l 600 553 q 408 629 518 629 q 266 594 328 629 q 170 494 204 558 q 136 347 136 431 q 170 201 136 265 q 266 101 204 136 q 407 65 328 65 q 513 85 461 65 q 607 144 564 106 l 658 78 q 545 8 610 32 q 408 -17 481 -17 q 220 29 301 -17 q 94 157 139 75 q 49 346 49 239 z "},"d":{"ha":849,"x_min":49,"x_max":743,"o":"m 743 0 l 658 0 l 658 136 q 550 24 622 64 q 385 -17 478 -17 q 211 30 288 -17 q 92 159 135 76 q 49 347 49 242 q 92 535 49 453 q 211 665 135 618 q 385 711 288 711 q 547 671 475 711 q 658 557 618 631 l 658 972 l 743 972 l 743 0 m 400 632 q 263 596 322 632 q 169 495 203 560 q 136 347 136 431 q 169 199 136 264 q 263 99 203 135 q 400 63 322 63 q 592 140 519 63 q 664 347 664 218 q 592 554 664 476 q 400 632 519 632 z "},"e":{"ha":767,"x_min":49,"x_max":718,"o":"m 49 343 q 91 530 49 446 q 211 663 133 614 q 390 711 289 711 q 570 663 496 711 q 681 535 644 615 q 718 356 718 454 l 718 331 l 135 331 l 135 321 q 212 131 138 200 q 399 63 286 63 q 631 169 532 63 l 675 103 q 401 -17 561 -17 q 217 28 297 -17 q 93 154 138 72 q 49 343 49 236 m 626 399 q 559 567 619 503 q 392 632 499 632 q 216 569 282 632 q 139 399 150 506 l 626 399 z "},"f":{"ha":532,"x_min":29,"x_max":503,"o":"m 282 0 l 197 0 l 197 619 l 29 619 l 29 694 l 197 694 l 197 743 q 407 985 197 985 q 503 976 439 985 l 503 897 q 418 907 450 907 q 315 870 347 907 q 282 743 282 833 l 282 694 l 494 694 l 494 619 l 282 619 l 282 0 z "},"g":{"ha":840,"x_min":49,"x_max":743,"o":"m 49 347 q 92 535 49 453 q 212 665 135 618 q 388 711 289 711 q 556 670 482 711 q 658 561 629 629 l 658 694 l 743 694 l 743 39 q 658 -210 743 -125 q 408 -296 572 -296 q 219 -257 296 -296 q 99 -137 143 -218 l 164 -83 q 265 -187 204 -153 q 415 -221 326 -221 q 599 -156 538 -221 q 661 39 661 -90 l 661 133 q 557 24 631 65 q 389 -17 483 -17 q 210 28 288 -17 q 91 156 133 74 q 49 347 49 239 m 664 347 q 592 554 664 476 q 403 632 521 632 q 264 596 325 632 q 169 495 203 560 q 136 347 136 431 q 169 199 136 264 q 264 99 203 135 q 403 63 325 63 q 592 140 521 63 q 664 347 664 218 z "},"h":{"ha":799,"x_min":106,"x_max":704,"o":"m 190 551 q 442 711 263 711 q 636 631 568 711 q 704 406 704 551 l 704 0 l 617 0 l 617 410 q 567 574 617 515 q 426 632 517 632 q 251 552 311 632 q 190 321 190 472 l 190 0 l 106 0 l 106 972 l 190 972 l 190 551 z "},"i":{"ha":293,"x_min":69,"x_max":225,"o":"m 189 694 l 189 0 l 104 0 l 104 694 l 189 694 m 147 828 q 91 849 113 828 q 69 906 69 871 q 91 962 69 940 q 147 983 113 983 q 203 962 182 983 q 225 906 225 940 q 203 849 225 871 q 147 828 182 828 z "},"j":{"ha":329,"x_min":-42,"x_max":253,"o":"m 218 -47 q 161 -228 218 -172 q -28 -283 104 -283 l -42 -283 l -42 -201 l -28 -201 q 99 -164 64 -201 q 133 -47 133 -126 l 133 694 l 218 694 l 218 -47 m 175 828 q 119 849 140 828 q 97 906 97 871 q 119 962 97 940 q 175 983 140 983 q 231 962 210 983 q 253 906 253 940 q 231 849 253 871 q 175 828 210 828 z "},"k":{"ha":700,"x_min":106,"x_max":682,"o":"m 317 333 l 190 207 l 190 0 l 106 0 l 106 972 l 190 972 l 190 317 l 556 694 l 675 694 l 374 392 l 682 0 l 571 0 l 317 333 z "},"l":{"ha":299,"x_min":106,"x_max":193,"o":"m 193 972 l 193 0 l 106 0 l 106 972 l 193 972 z "},"m":{"ha":1299,"x_min":97,"x_max":1203,"o":"m 663 525 q 933 711 736 711 q 1134 633 1065 711 q 1203 404 1203 554 l 1203 0 l 1117 0 l 1117 417 q 1068 576 1117 519 q 926 632 1019 632 q 749 550 807 632 q 692 326 692 468 l 692 0 l 606 0 l 606 413 q 556 574 606 517 q 413 632 507 632 q 238 549 294 632 q 182 321 182 465 l 182 0 l 97 0 l 97 694 l 179 694 l 179 546 q 270 667 206 624 q 424 711 335 711 q 578 664 517 711 q 663 525 640 617 z "},"n":{"ha":790,"x_min":97,"x_max":696,"o":"m 97 694 l 179 694 l 179 544 q 275 667 210 624 q 435 711 340 711 q 627 632 558 711 q 696 413 696 553 l 696 0 l 608 0 l 608 410 q 558 573 608 514 q 413 632 508 632 q 240 549 297 632 q 182 321 182 465 l 182 0 l 97 0 l 97 694 z "},"o":{"ha":824,"x_min":49,"x_max":776,"o":"m 49 347 q 95 535 49 451 q 225 665 142 618 q 413 711 308 711 q 600 665 517 711 q 730 535 683 618 q 776 347 776 451 q 730 160 776 243 q 600 30 683 76 q 413 -17 517 -17 q 225 30 308 -17 q 95 160 142 76 q 49 347 49 243 m 688 347 q 653 493 688 429 q 557 593 619 557 q 413 629 494 629 q 268 593 331 629 q 171 493 206 557 q 136 347 136 429 q 171 201 136 265 q 268 101 206 138 q 413 65 331 65 q 557 101 494 65 q 653 201 619 138 q 688 347 688 265 z "},"p":{"ha":840,"x_min":97,"x_max":792,"o":"m 97 694 l 182 694 l 182 558 q 290 671 218 631 q 456 711 363 711 q 629 665 553 711 q 749 535 706 618 q 792 347 792 453 q 749 159 792 242 q 629 30 706 76 q 456 -17 553 -17 q 294 24 365 -17 q 182 138 224 64 l 182 -278 l 97 -278 l 97 694 m 442 63 q 578 99 518 63 q 671 199 638 135 q 704 347 704 264 q 671 495 704 431 q 578 596 638 560 q 442 632 518 632 q 249 554 322 632 q 176 347 176 476 q 249 140 176 218 q 442 63 322 63 z "},"q":{"ha":840,"x_min":49,"x_max":743,"o":"m 658 138 q 547 24 618 64 q 385 -17 476 -17 q 211 30 288 -17 q 92 159 135 76 q 49 347 49 242 q 92 535 49 453 q 211 665 135 618 q 385 711 288 711 q 550 671 478 711 q 658 558 622 631 l 658 694 l 743 694 l 743 -278 l 658 -278 l 658 138 m 136 347 q 169 199 136 264 q 263 99 203 135 q 400 63 322 63 q 592 140 519 63 q 664 347 664 218 q 592 554 664 476 q 400 632 519 632 q 263 596 322 632 q 169 495 203 560 q 136 347 136 431 z "},"r":{"ha":493,"x_min":97,"x_max":465,"o":"m 179 551 q 262 671 206 631 q 397 711 318 711 q 465 706 433 711 l 465 615 q 396 624 428 624 q 232 541 282 624 q 182 319 182 458 l 182 0 l 97 0 l 97 694 l 179 694 l 179 551 z "},"s":{"ha":639,"x_min":42,"x_max":599,"o":"m 74 514 q 142 658 74 604 q 331 711 210 711 q 486 676 418 711 q 593 569 554 642 l 522 524 q 447 604 497 576 q 326 632 397 632 q 203 600 247 632 q 158 517 160 568 q 182 453 158 476 q 241 419 206 431 q 350 390 276 407 q 486 352 438 371 q 567 294 535 333 q 599 188 599 256 q 529 38 599 92 q 335 -17 460 -17 q 155 23 233 -17 q 42 140 76 63 l 111 186 q 199 93 139 124 q 338 63 260 63 q 466 93 419 63 q 513 182 513 124 q 490 249 513 225 q 434 283 468 272 q 333 310 400 294 q 197 347 250 328 q 108 407 143 367 q 74 514 74 447 z "},"t":{"ha":500,"x_min":25,"x_max":461,"o":"m 461 7 q 354 -7 403 -7 q 215 38 260 -7 q 171 186 171 82 l 171 619 l 25 619 l 25 694 l 171 694 l 171 881 l 257 881 l 257 694 l 457 694 l 457 619 l 257 619 l 257 182 q 281 99 257 125 q 360 72 304 72 q 461 82 406 72 l 461 7 z "},"u":{"ha":783,"x_min":97,"x_max":686,"o":"m 686 0 l 604 0 l 604 143 q 360 -17 533 -17 q 160 64 222 -17 q 97 288 97 144 l 97 694 l 185 694 l 185 286 q 228 122 185 181 q 374 63 271 63 q 547 150 493 63 q 601 374 601 238 l 601 694 l 686 694 l 686 0 z "},"v":{"ha":707,"x_min":14,"x_max":693,"o":"m 319 0 l 14 694 l 114 694 l 354 117 l 594 694 l 693 694 l 388 0 l 319 0 z "},"w":{"ha":1219,"x_min":18,"x_max":1201,"o":"m 304 0 l 18 694 l 115 694 l 339 126 l 579 694 l 642 694 l 881 126 l 1104 694 l 1201 694 l 915 0 l 850 0 l 610 556 l 371 0 l 304 0 z "},"x":{"ha":694,"x_min":18,"x_max":676,"o":"m 347 286 l 124 0 l 18 0 l 294 351 l 25 694 l 131 694 l 347 418 l 564 694 l 669 694 l 400 351 l 676 0 l 571 0 l 347 286 z "},"y":{"ha":713,"x_min":18,"x_max":699,"o":"m 156 -278 l 324 81 l 18 694 l 121 694 l 368 179 l 608 694 l 699 694 l 249 -278 l 156 -278 z "},"z":{"ha":638,"x_min":44,"x_max":593,"o":"m 582 694 l 582 618 l 149 79 l 593 79 l 593 0 l 44 0 l 44 76 l 476 615 l 64 615 l 64 694 l 582 694 z "},":":{"ha":375,"x_min":100,"x_max":275,"o":"m 188 711 q 249 685 224 711 q 275 622 275 660 q 249 561 275 586 q 188 536 224 536 q 125 561 150 536 q 100 622 100 586 q 125 685 100 660 q 188 711 150 711 m 188 175 q 249 149 224 175 q 275 88 275 124 q 249 25 275 50 q 188 0 224 0 q 125 25 150 0 q 100 88 100 50 q 125 149 100 124 q 188 175 150 175 z "},".":{"ha":383,"x_min":104,"x_max":279,"o":"m 192 175 q 254 149 229 175 q 279 88 279 124 q 254 25 279 50 q 192 0 229 0 q 129 25 154 0 q 104 88 104 50 q 129 149 104 124 q 192 175 154 175 z "},"-":{"ha":872,"x_min":111,"x_max":761,"o":"m 761 489 l 761 400 l 111 400 l 111 489 l 761 489 z "},"!":{"ha":415,"x_min":119,"x_max":294,"o":"m 163 310 l 163 972 l 251 972 l 251 310 l 163 310 m 207 175 q 269 149 244 175 q 294 88 294 124 q 269 25 294 50 q 207 0 244 0 q 144 25 169 0 q 119 88 119 50 q 144 149 119 124 q 207 175 169 175 z "},"?":{"ha":749,"x_min":69,"x_max":638,"o":"m 314 306 q 333 403 314 361 q 378 474 353 446 q 450 543 404 501 q 524 621 499 586 q 549 711 549 656 q 499 833 549 783 q 363 883 450 883 q 212 824 267 883 q 157 669 157 764 l 69 669 q 104 823 69 754 q 206 932 139 892 q 364 972 272 972 q 506 940 443 972 q 603 849 568 907 q 638 714 638 790 q 620 618 638 660 q 577 547 603 576 q 507 475 551 517 q 468 440 501 469 q 419 376 435 410 q 403 306 403 343 l 403 276 l 314 276 l 314 306 m 358 175 q 421 149 396 175 q 446 88 446 124 q 421 25 446 50 q 358 0 396 0 q 296 25 321 0 q 271 88 271 50 q 296 149 271 124 q 358 175 321 175 z "},"/":{"ha":757,"x_min":18,"x_max":739,"o":"m 678 1021 l 739 976 l 79 -49 l 18 -4 l 678 1021 z "},"|":{"ha":353,"x_min":139,"x_max":214,"o":"m 214 1057 l 214 -186 l 139 -186 l 139 1057 l 214 1057 z "},"(":{"ha":415,"x_min":88,"x_max":408,"o":"m 88 440 q 157 801 88 636 q 351 1097 226 965 l 407 1046 q 231 771 292 915 q 171 440 171 626 q 232 104 171 254 q 408 -176 293 -46 l 351 -228 q 158 73 228 -97 q 88 440 88 243 z "},")":{"ha":417,"x_min":7,"x_max":328,"o":"m 64 1097 q 258 801 189 965 q 328 440 328 636 q 258 73 328 243 q 64 -228 188 -97 l 7 -176 q 183 105 122 -46 q 244 440 244 256 q 184 772 244 626 q 7 1046 124 917 l 64 1097 z "},"[":{"ha":419,"x_min":161,"x_max":419,"o":"m 419 1057 l 419 983 l 240 983 l 240 -112 l 419 -112 l 419 -186 l 161 -186 l 161 1057 l 419 1057 z "},"]":{"ha":419,"x_min":0,"x_max":258,"o":"m 258 1057 l 258 -186 l 0 -186 l 0 -112 l 179 -112 l 179 983 l 0 983 l 0 1057 l 258 1057 z "},"{":{"ha":482,"x_min":82,"x_max":482,"o":"m 482 982 l 444 982 q 347 951 382 982 q 313 860 313 921 l 313 619 q 284 503 313 546 q 192 442 256 460 q 284 381 256 424 q 313 264 313 338 l 313 13 q 347 -81 313 -50 q 444 -111 382 -111 l 482 -111 l 482 -186 l 449 -186 q 236 17 236 -186 l 236 256 q 197 360 236 324 q 82 400 157 396 l 82 475 q 197 516 157 479 q 236 621 236 553 l 236 856 q 290 1008 236 960 q 449 1057 344 1057 l 482 1057 l 482 982 z "},"}":{"ha":482,"x_min":0,"x_max":399,"o":"m 32 1057 q 192 1008 138 1057 q 246 856 246 960 l 246 621 q 285 516 246 553 q 399 475 325 479 l 399 400 q 285 360 325 396 q 246 256 246 324 l 246 17 q 32 -186 246 -186 l 0 -186 l 0 -111 l 36 -111 q 133 -81 99 -111 q 168 13 168 -50 l 168 264 q 197 380 168 338 q 290 442 226 422 q 197 503 226 461 q 168 619 168 546 l 168 860 q 133 951 168 921 q 36 982 99 982 l 0 982 l 0 1057 l 32 1057 z "},"*":{"ha":589,"x_min":69,"x_max":519,"o":"m 326 972 l 326 794 l 497 850 l 519 786 l 347 732 l 453 588 l 401 547 l 294 692 l 188 546 l 136 586 l 242 731 l 69 786 l 92 849 l 261 793 l 261 972 l 326 972 z "},"\\":{"ha":757,"x_min":18,"x_max":739,"o":"m 79 1021 l 739 -4 l 678 -49 l 18 976 l 79 1021 z "},"'":{"ha":267,"x_min":97,"x_max":169,"o":"m 169 972 l 169 618 l 97 618 l 97 972 l 169 972 z "},"\"":{"ha":436,"x_min":97,"x_max":339,"o":"m 169 972 l 169 618 l 97 618 l 97 972 l 169 972 m 339 972 l 339 618 l 265 618 l 265 972 l 339 972 z "},"&":{"ha":961,"x_min":104,"x_max":871,"o":"m 403 -17 q 241 19 308 -17 q 139 116 174 54 q 104 256 104 178 q 133 379 104 326 q 206 469 161 432 q 318 549 250 507 l 271 600 q 190 782 190 689 q 217 886 190 839 q 292 961 243 933 q 407 989 342 989 q 520 961 471 989 q 597 885 569 933 q 624 779 624 838 q 576 642 624 699 q 446 533 529 586 l 675 279 q 728 468 707 351 l 807 451 q 738 210 786 311 l 871 60 l 806 1 l 690 128 q 403 -17 586 -17 m 390 594 q 498 680 461 639 q 535 778 535 721 q 498 871 535 836 q 407 906 461 906 q 316 870 353 906 q 279 782 279 835 q 295 715 279 747 q 340 650 311 683 l 390 594 m 404 67 q 635 193 551 67 l 374 485 q 237 378 281 426 q 193 257 193 331 q 248 121 193 175 q 404 67 303 67 z "},"@":{"ha":1322,"x_min":97,"x_max":1225,"o":"m 668 -151 q 373 -78 503 -151 q 170 126 243 -4 q 97 419 97 256 q 174 716 97 586 q 383 917 250 846 q 678 989 515 989 q 955 930 831 989 q 1152 758 1079 871 q 1225 488 1225 644 q 1163 228 1225 324 q 983 132 1100 132 q 835 250 863 132 q 628 126 769 126 q 483 175 536 126 q 429 301 429 224 q 479 422 429 378 q 604 474 529 467 l 817 493 q 783 611 817 578 q 676 644 750 644 q 569 619 614 644 q 511 544 525 594 l 444 578 q 522 681 465 644 q 671 718 578 718 q 896 494 896 718 l 896 321 q 919 235 896 267 q 988 204 943 204 q 1101 275 1060 204 q 1142 486 1142 346 q 1080 714 1142 618 q 913 860 1018 810 q 678 910 807 910 q 425 848 539 910 q 246 674 311 786 q 181 419 181 563 q 242 167 181 279 q 415 -8 304 56 q 667 -72 526 -72 q 844 -55 760 -72 q 986 -10 928 -37 l 1003 -86 q 668 -151 847 -151 m 635 200 q 732 226 690 200 q 795 292 774 251 q 817 375 817 332 l 817 422 l 613 400 q 535 366 560 394 q 511 301 511 338 q 544 228 511 257 q 635 200 576 200 z "},"^":{"ha":496,"x_min":28,"x_max":468,"o":"m 286 1025 l 468 697 l 403 663 l 249 947 l 93 663 l 28 697 l 210 1025 l 286 1025 z "},"$":{"ha":729,"x_min":71,"x_max":661,"o":"m 397 522 q 587 421 521 479 q 653 256 653 363 q 583 78 653 147 q 397 1 514 8 l 397 -110 l 332 -110 l 332 1 q 165 68 233 11 q 71 218 97 125 l 151 256 q 217 142 171 183 q 332 92 263 100 l 332 451 q 146 553 211 494 q 81 717 81 611 q 149 894 81 825 q 332 971 218 963 l 332 1079 l 397 1079 l 397 971 q 566 904 497 961 q 661 754 635 847 l 581 717 q 515 832 561 790 q 397 882 468 874 l 397 522 m 169 718 q 209 615 169 654 q 332 544 249 575 l 332 882 q 213 831 257 875 q 169 718 169 786 m 397 90 q 519 141 475 97 q 564 254 564 185 q 524 358 564 319 q 397 428 483 396 l 397 90 z "},"£":{"ha":826,"x_min":85,"x_max":794,"o":"m 794 119 q 690 31 751 63 q 529 0 629 0 l 93 0 l 93 81 q 188 128 156 88 q 221 242 221 169 l 221 467 l 85 467 l 85 542 l 221 542 l 221 697 q 286 896 221 819 q 478 972 351 972 q 621 931 563 972 q 711 829 679 890 l 636 775 q 573 858 614 828 q 478 888 532 888 q 354 838 399 888 q 310 697 310 788 l 310 542 l 601 542 l 601 467 l 310 467 l 310 243 q 287 138 310 178 q 229 85 264 97 l 529 85 q 658 113 601 83 q 747 199 714 143 l 794 119 z "},"%":{"ha":1115,"x_min":53,"x_max":1067,"o":"m 274 972 q 387 944 336 972 q 466 865 438 915 q 494 751 494 814 q 466 638 494 689 q 387 559 438 588 q 274 531 336 531 q 160 559 211 531 q 81 638 110 588 q 53 751 53 689 q 81 865 53 814 q 160 944 110 915 q 274 972 211 972 m 901 972 l 951 932 l 217 0 l 167 42 l 901 972 m 428 751 q 384 863 428 818 q 274 907 340 907 q 162 863 206 907 q 118 751 118 818 q 162 641 118 685 q 274 597 206 597 q 384 641 340 597 q 428 751 428 685 m 625 221 q 653 334 625 283 q 733 413 682 385 q 846 442 783 442 q 959 413 908 442 q 1038 334 1010 385 q 1067 221 1067 283 q 1038 108 1067 158 q 959 28 1010 57 q 846 0 908 0 q 733 28 783 0 q 653 108 682 57 q 625 221 625 158 m 846 375 q 735 331 779 375 q 692 221 692 288 q 735 110 692 154 q 846 65 779 65 q 956 110 913 65 q 1000 221 1000 154 q 956 331 1000 288 q 846 375 913 375 z "},"#":{"ha":769,"x_min":42,"x_max":728,"o":"m 460 314 l 261 314 l 215 0 l 147 0 l 194 314 l 42 314 l 50 378 l 203 378 l 235 606 l 83 606 l 93 671 l 244 671 l 288 972 l 357 972 l 313 671 l 510 671 l 553 972 l 622 972 l 578 671 l 728 671 l 719 606 l 569 606 l 536 378 l 685 378 l 675 314 l 528 314 l 482 0 l 414 0 l 460 314 m 500 606 l 304 606 l 271 378 l 468 378 l 500 606 z "},"+":{"ha":889,"x_min":100,"x_max":789,"o":"m 489 786 l 489 486 l 789 486 l 789 397 l 489 397 l 489 97 l 400 97 l 400 397 l 100 397 l 100 486 l 400 486 l 400 786 l 489 786 z "},"=":{"ha":889,"x_min":107,"x_max":782,"o":"m 782 600 l 782 511 l 107 511 l 107 600 l 782 600 m 782 310 l 782 221 l 107 221 l 107 310 l 782 310 z "}}}
